<mxfile host="app.diagrams.net" agent="Mozilla/5.0 (Windows NT 10.0; Win64; x64; rv:135.0) Gecko/20100101 Firefox/135.0" version="26.0.13">
  <diagram name="Page-1" id="b2sUMMxi-tYix0Grxk9S">
    <mxGraphModel dx="1208" dy="435" grid="0" gridSize="10" guides="1" tooltips="1" connect="1" arrows="1" fold="1" page="0" pageScale="1" pageWidth="7000" pageHeight="5000" math="0" shadow="0">
      <root>
        <mxCell id="0" />
        <mxCell id="1" parent="0" />
        <mxCell id="NaSA3XgOE01kCahbcJ33-1" value="Администратор" style="shape=umlActor;verticalLabelPosition=bottom;verticalAlign=top;html=1;outlineConnect=0;" vertex="1" parent="1">
          <mxGeometry x="354" y="332" width="30" height="60" as="geometry" />
        </mxCell>
        <mxCell id="NaSA3XgOE01kCahbcJ33-2" value="Управление клиентами" style="ellipse;whiteSpace=wrap;html=1;" vertex="1" parent="1">
          <mxGeometry x="184" y="248" width="120" height="80" as="geometry" />
        </mxCell>
        <mxCell id="NaSA3XgOE01kCahbcJ33-3" value="Отправка команд клиенту" style="ellipse;whiteSpace=wrap;html=1;" vertex="1" parent="1">
          <mxGeometry x="452" y="205" width="120" height="80" as="geometry" />
        </mxCell>
        <mxCell id="NaSA3XgOE01kCahbcJ33-4" value="Добавление" style="ellipse;whiteSpace=wrap;html=1;" vertex="1" parent="1">
          <mxGeometry x="-13" y="228" width="120" height="80" as="geometry" />
        </mxCell>
        <mxCell id="NaSA3XgOE01kCahbcJ33-5" value="Изменение" style="ellipse;whiteSpace=wrap;html=1;" vertex="1" parent="1">
          <mxGeometry x="71" y="133" width="120" height="80" as="geometry" />
        </mxCell>
        <mxCell id="NaSA3XgOE01kCahbcJ33-6" value="Удаление" style="ellipse;whiteSpace=wrap;html=1;" vertex="1" parent="1">
          <mxGeometry x="232" y="95" width="120" height="80" as="geometry" />
        </mxCell>
        <mxCell id="NaSA3XgOE01kCahbcJ33-7" value="" style="endArrow=none;dashed=1;html=1;rounded=0;entryX=1;entryY=0.5;entryDx=0;entryDy=0;exitX=0;exitY=0.5;exitDx=0;exitDy=0;" edge="1" parent="1" source="NaSA3XgOE01kCahbcJ33-2" target="NaSA3XgOE01kCahbcJ33-4">
          <mxGeometry width="50" height="50" relative="1" as="geometry">
            <mxPoint x="97" y="386" as="sourcePoint" />
            <mxPoint x="147" y="336" as="targetPoint" />
          </mxGeometry>
        </mxCell>
        <mxCell id="NaSA3XgOE01kCahbcJ33-8" value="" style="endArrow=none;dashed=1;html=1;rounded=0;entryX=1;entryY=1;entryDx=0;entryDy=0;exitX=0;exitY=0;exitDx=0;exitDy=0;" edge="1" parent="1" source="NaSA3XgOE01kCahbcJ33-2" target="NaSA3XgOE01kCahbcJ33-5">
          <mxGeometry width="50" height="50" relative="1" as="geometry">
            <mxPoint x="240" y="238" as="sourcePoint" />
            <mxPoint x="156" y="228" as="targetPoint" />
          </mxGeometry>
        </mxCell>
        <mxCell id="NaSA3XgOE01kCahbcJ33-9" value="" style="endArrow=none;dashed=1;html=1;rounded=0;entryX=0.5;entryY=1;entryDx=0;entryDy=0;exitX=0.676;exitY=0.02;exitDx=0;exitDy=0;exitPerimeter=0;" edge="1" parent="1" source="NaSA3XgOE01kCahbcJ33-2" target="NaSA3XgOE01kCahbcJ33-6">
          <mxGeometry width="50" height="50" relative="1" as="geometry">
            <mxPoint x="338" y="209" as="sourcePoint" />
            <mxPoint x="254" y="199" as="targetPoint" />
          </mxGeometry>
        </mxCell>
        <mxCell id="NaSA3XgOE01kCahbcJ33-11" value="" style="endArrow=none;html=1;rounded=0;entryX=1;entryY=1;entryDx=0;entryDy=0;" edge="1" parent="1" target="NaSA3XgOE01kCahbcJ33-2">
          <mxGeometry width="50" height="50" relative="1" as="geometry">
            <mxPoint x="317" y="355" as="sourcePoint" />
            <mxPoint x="247" y="365" as="targetPoint" />
          </mxGeometry>
        </mxCell>
        <mxCell id="NaSA3XgOE01kCahbcJ33-12" value="" style="endArrow=none;html=1;rounded=0;entryX=0.267;entryY=0.95;entryDx=0;entryDy=0;entryPerimeter=0;" edge="1" parent="1" target="NaSA3XgOE01kCahbcJ33-3">
          <mxGeometry width="50" height="50" relative="1" as="geometry">
            <mxPoint x="430" y="348" as="sourcePoint" />
            <mxPoint x="363" y="268.5" as="targetPoint" />
          </mxGeometry>
        </mxCell>
      </root>
    </mxGraphModel>
  </diagram>
</mxfile>
